<svg xmlns="http://www.w3.org/2000/svg" xmlns:xlink="http://www.w3.org/1999/xlink" viewBox="0 0 177.94 177.94"><defs><style>.cls-1{fill:url(#linear-gradient);}.cls-2{fill:#fff;}</style><linearGradient id="linear-gradient" y1="88.97" x2="177.94" y2="88.97" gradientUnits="userSpaceOnUse"><stop offset="0" stop-color="#8400ff"/><stop offset="0.26" stop-color="#7b00ff"/><stop offset="0.69" stop-color="#6200ff"/><stop offset="1" stop-color="#4c00ff"/></linearGradient></defs><g id="Layer_2" data-name="Layer 2"><g id="Layer_2-2" data-name="Layer 2"><circle class="cls-1" cx="88.97" cy="88.97" r="88.97"/><path class="cls-2" d="M105,67.19,81.53,79.5l9.09,4.92L109,74.79a23.08,23.08,0,0,0,12.41-20.51V42a10.87,10.87,0,0,0-15.91-9.63L68.6,51.73a22.54,22.54,0,0,0,0,39.94L105,110.74a14.54,14.54,0,0,1,7.82,12.92V135.9a2.3,2.3,0,0,1-3.36,2L72.57,118.61a13.95,13.95,0,0,1-6.14-18.35l-7.51-4.18a22.56,22.56,0,0,0,9.68,30.13l36.91,19.32a10.87,10.87,0,0,0,15.91-9.63V123.66A23.08,23.08,0,0,0,109,103.15L72.57,84.08a14,14,0,0,1,0-24.76L109.49,40a2.3,2.3,0,0,1,3.36,2V54.28A14.51,14.51,0,0,1,105,67.19Z"/></g></g></svg>