<svg xmlns="http://www.w3.org/2000/svg" viewBox="0 0 537.12 115.63"><defs><style>.cls-1{fill:#8300ff;}.cls-2{fill:#fff;}</style></defs><g id="Layer_2" data-name="Layer 2"><g id="Layer_2-2" data-name="Layer 2"><path class="cls-1" d="M48.52,36,25,48.34l9.08,4.92,18.4-9.62A23.08,23.08,0,0,0,64.91,23.12V10.88A10.87,10.87,0,0,0,49,1.25L12.09,20.58a22.54,22.54,0,0,0,0,39.94L48.52,79.59a14.52,14.52,0,0,1,7.82,12.92v12.24a2.3,2.3,0,0,1-3.36,2L16.06,87.46A14,14,0,0,1,9.92,69.1L2.41,64.93a22.55,22.55,0,0,0,9.68,30.12L49,114.38a10.8,10.8,0,0,0,10.67-.33,10.8,10.8,0,0,0,5.24-9.3V92.51A23.08,23.08,0,0,0,52.5,72L16.06,52.92a14,14,0,0,1,0-24.75L53,8.85a2.3,2.3,0,0,1,3.36,2V23.12A14.52,14.52,0,0,1,48.52,36Z"/><path class="cls-2" d="M158.22,39.44c-2-9.67-9.57-14.55-19.15-14.55-16.28,0-23.17,13.4-23.17,27.67,0,15.61,6.89,28.63,23.27,28.63,11.87,0,19-8.43,19.72-19.73H168c-1.82,17.14-12.26,27.39-29.59,27.39-21.16,0-31.6-15.7-31.6-35.62s11.3-36,32.37-36c14.26,0,26.14,7.66,28.15,22.21Z"/><path class="cls-2" d="M178.43,18.86h8.14V87.22h-8.14Z"/><path class="cls-2" d="M243.06,87a11.49,11.49,0,0,1-5.84,1.34c-4.22,0-6.9-2.3-6.9-7.66-4.5,5.36-10.53,7.66-17.42,7.66-9,0-16.38-3.93-16.38-13.88,0-11.21,8.33-13.7,16.76-15.23,8.9-1.82,16.66-1,16.66-7.27,0-7.19-5.94-8.24-11-8.24-6.9,0-12,2.11-12.35,9.38h-8.14c.48-12.25,9.86-16.56,21-16.56,8.9,0,18.57,2,18.57,13.6V75.64c0,3.83,0,5.55,2.59,5.55a8.1,8.1,0,0,0,2.49-.48ZM229.84,61.66c-6.32,4.69-24.7.09-24.7,12.25,0,5.36,4.6,7.28,9.58,7.28,10.72,0,15.12-6.61,15.12-11.2Z"/><path class="cls-2" d="M270.06,93.83C266.23,103.4,263,107,255.7,107a16.2,16.2,0,0,1-5.65-.86V98.71a16.6,16.6,0,0,0,4.79,1.15c3.35,0,5.17-1.53,6.7-4.5l3.35-8.43L245.26,37.72h9.19l14.46,40.5h.19L283,37.72h8.61Z"/><path class="cls-2" d="M339.39,38.87c-1.06-9.86-7.47-14-16.95-14-7.76,0-15.32,2.78-15.32,11.68,0,16.85,43.76,5,43.76,31.88,0,14.56-14.27,20.4-26.72,20.4-15.32,0-28.24-7.57-28.24-24.13h8.61c0,11.49,9.58,16.47,19.92,16.47,8.23,0,17.33-2.59,17.33-12.45C341.78,50,298,62.33,298,37.24c0-13.79,12.26-20,24.8-20,14,0,24.7,6.61,25.18,21.64Z"/><path class="cls-2" d="M371.85,37.72h9.86V44.9h-9.86V75.64c0,3.83,1,4.4,6.13,4.4h3.73v7.18h-6.22c-8.43,0-11.78-1.72-11.78-10.82V44.9h-8.43V37.72h8.43V22.88h8.14Z"/><path class="cls-2" d="M434.56,87a11.44,11.44,0,0,1-5.84,1.34c-4.21,0-6.89-2.3-6.89-7.66-4.5,5.36-10.53,7.66-17.43,7.66-9,0-16.37-3.93-16.37-13.88,0-11.21,8.33-13.7,16.76-15.23,8.9-1.82,16.66-1,16.66-7.27,0-7.19-5.94-8.24-11-8.24-6.9,0-12,2.11-12.36,9.38H390c.47-12.25,9.86-16.56,21-16.56,8.91,0,18.58,2,18.58,13.6V75.64c0,3.83,0,5.55,2.59,5.55a8,8,0,0,0,2.48-.48ZM421.35,61.66c-6.32,4.69-24.7.09-24.7,12.25,0,5.36,4.59,7.28,9.57,7.28,10.73,0,15.13-6.61,15.13-11.2Z"/><path class="cls-2" d="M475.74,53.61c-1.25-6.22-5.46-9.86-12.26-9.86-11.77,0-15.41,9.38-15.41,19.34,0,9.19,4.11,18.1,14.46,18.1,7.94,0,12.54-4.5,13.59-12.07h8.33c-1.82,12.16-9.29,19.25-21.83,19.25-15.13,0-23.17-10.44-23.17-25.28s7.66-26.52,23.36-26.52c11.3,0,20.11,5.27,21.36,17Z"/><path class="cls-2" d="M494,18.86h8.14v40.5l22.59-21.64h10.92l-19.63,18,21.07,31.5H526.77L509.83,61.37l-7.66,7.08V87.22H494Z"/></g></g></svg>