<svg width="24" height="24" viewBox="0 0 24 24" fill="none" xmlns="http://www.w3.org/2000/svg">
<rect x="0.75" y="0.75" width="22.5" height="22.5" rx="11.25" fill="#130E19"/>
<g clip-path="url(#clip0_1010_1288)">
<path d="M11.4067 5.91185C10.0079 6.06018 8.74829 6.64891 7.74653 7.61872C7.52518 7.83322 7.12813 8.28276 7.12813 8.31927C7.12813 8.33068 8.60681 8.33752 10.4141 8.33752C13.1934 8.33752 13.7137 8.33296 13.7776 8.30558C13.821 8.28732 13.9921 8.13215 14.1678 7.95416C14.339 7.77846 14.5078 7.62329 14.5466 7.60731C14.5854 7.59134 14.663 7.58449 14.7315 7.58906C14.8592 7.60275 14.8798 7.61872 15.2974 8.08195C15.4183 8.21658 15.4959 8.28048 15.5598 8.3033C15.6282 8.3284 15.7994 8.33524 16.2626 8.33752C16.5981 8.33752 16.8719 8.3284 16.8719 8.31927C16.8719 8.27591 16.4954 7.85148 16.2307 7.5959C15.327 6.72193 14.1861 6.15602 12.9128 5.95065C12.6914 5.91642 11.6281 5.88675 11.4067 5.91185Z" fill="white"/>
<path d="M13.141 9.23661C13.0679 9.25715 13.0018 9.31876 12.7918 9.55151C12.5865 9.78198 12.5066 9.85501 12.4039 9.90521L12.2738 9.9691L9.25031 9.98051L6.22906 9.99192L6.16516 10.1973C6.05335 10.5533 5.921 11.2264 5.91872 11.4341V11.4866H8.73916C11.2333 11.4866 11.5687 11.482 11.6326 11.4523C11.6737 11.4318 11.8357 11.2812 11.9909 11.1169C12.1461 10.9526 12.3035 10.7997 12.3423 10.7769C12.4244 10.7244 12.5819 10.7199 12.6709 10.7678C12.7074 10.786 12.8557 10.9343 13.0041 11.1009C13.1889 11.3063 13.303 11.4136 13.3669 11.4432C13.4559 11.4843 13.5722 11.4866 15.7743 11.4866H18.0882L18.0722 11.304C18.0494 11.0621 17.9467 10.5556 17.8531 10.2384L17.7778 9.98279L15.9614 9.97595C14.3298 9.9691 14.1382 9.96454 14.0765 9.93259C14.04 9.91205 13.8849 9.75688 13.732 9.5903C13.4011 9.22292 13.3304 9.17956 13.141 9.23661Z" fill="white"/>
<path d="M10.9161 12.4085C10.8841 12.4267 10.7472 12.5659 10.6126 12.7165C10.4369 12.9151 10.3319 13.0109 10.2475 13.0565L10.1288 13.1182L8.07055 13.125C6.04877 13.1296 6.00998 13.1318 6.00998 13.1752C6.00998 13.2528 6.16287 13.8187 6.24502 14.0446C6.28837 14.1656 6.36368 14.3527 6.40931 14.4599L6.49374 14.6584H7.91994C9.07459 14.6584 9.35754 14.6516 9.41687 14.6265C9.45795 14.6105 9.62909 14.4554 9.79795 14.2819C9.96681 14.1108 10.1334 13.9556 10.1676 13.9374C10.2475 13.8963 10.3981 13.8963 10.478 13.9374C10.5122 13.9556 10.6628 14.1062 10.8111 14.2705C10.9982 14.4782 11.1101 14.5854 11.1762 14.6151C11.2652 14.6562 11.3907 14.6584 14.3869 14.6584H17.504L17.5907 14.469C17.7025 14.2272 17.9033 13.6133 17.9626 13.3395L18.0083 13.1296H15.0144C12.1415 13.1296 12.0183 13.1273 11.9293 13.0862C11.8631 13.0565 11.7513 12.9493 11.5642 12.7416C11.4158 12.5773 11.2652 12.4267 11.231 12.4085C11.1534 12.3674 10.9914 12.3697 10.9161 12.4085Z" fill="white"/>
<path d="M8.58854 15.4183C8.4927 15.4411 8.44022 15.4891 8.18465 15.7812C7.96558 16.0344 7.88343 16.0915 7.67806 16.1417L7.5343 16.1782L7.75793 16.3904C9.20922 17.7641 11.142 18.3529 13.0725 18.0129C13.6384 17.9125 14.161 17.739 14.7155 17.4652C15.2882 17.1822 15.7743 16.8422 16.2421 16.3927L16.468 16.1759L13.0246 16.1645C9.79568 16.1531 9.57661 16.1508 9.50815 16.112C9.46708 16.0915 9.30963 15.9363 9.15902 15.7675C9.00842 15.5986 8.86694 15.4548 8.84412 15.4457C8.75284 15.4069 8.66385 15.3978 8.58854 15.4183Z" fill="white"/>
</g>
<rect x="0.75" y="0.75" width="22.5" height="22.5" rx="11.25" stroke="url(#paint0_linear_1010_1288)" stroke-width="1.5"/>
<defs>
<linearGradient id="paint0_linear_1010_1288" x1="12" y1="0" x2="12" y2="24" gradientUnits="userSpaceOnUse">
<stop stop-color="#A57BFF"/>
<stop offset="0.239583" stop-color="#FF66D4"/>
<stop offset="0.5" stop-color="#FF5B78"/>
<stop offset="0.739583" stop-color="#FF9E57"/>
<stop offset="1" stop-color="#FFD595"/>
</linearGradient>
<clipPath id="clip0_1010_1288">
<rect width="13.7143" height="13.7143" fill="white" transform="translate(5.14287 5.14288)"/>
</clipPath>
</defs>
</svg>
