<svg width="24" height="24" viewBox="0 0 24 24" fill="none" xmlns="http://www.w3.org/2000/svg">
<rect width="24" height="24" rx="12" fill="#10111B"/>
<circle cx="12" cy="12" r="11.25" stroke="url(#paint0_linear_601_1627)" stroke-width="1.5"/>
<g clip-path="url(#clip0_601_1627)">
<path fill-rule="evenodd" clip-rule="evenodd" d="M10.9935 13.5725C9.14695 13.5725 7.6645 12.0901 7.6645 10.2435C7.6645 8.39695 9.14695 6.9145 10.9935 6.9145C12.8401 6.9145 14.3225 8.39695 14.3225 10.2435C14.3225 12.0901 12.8401 13.5725 10.9935 13.5725ZM10.9935 5.25C13.7503 5.25 15.987 7.48667 15.987 10.2435C15.987 13.0003 13.7503 15.237 10.9935 15.237C8.23667 15.237 6 13.0003 6 10.2435C6 7.48667 8.23667 5.25 10.9935 5.25ZM15.7529 15.4971C16.091 15.8352 16.091 16.3553 15.7529 16.6674L12.4239 19.9964C12.0858 20.3345 11.5657 20.3345 11.2536 19.9964C10.9155 19.6583 10.9155 19.1382 11.2536 18.8261L14.5826 15.4971C14.8947 15.159 15.4408 15.159 15.7529 15.4971ZM17.6775 6.08225C17.6775 6.55039 17.3134 6.9145 16.8453 6.9145C16.3771 6.9145 16.013 6.55039 16.013 6.08225C16.013 5.61411 16.3771 5.25 16.8453 5.25C17.2874 5.25 17.6775 5.61411 17.6775 6.08225Z" fill="white"/>
</g>
<defs>
<linearGradient id="paint0_linear_601_1627" x1="12" y1="0" x2="12" y2="24" gradientUnits="userSpaceOnUse">
<stop stop-color="#A57BFF"/>
<stop offset="0.239583" stop-color="#FF66D4"/>
<stop offset="0.5" stop-color="#FF5B78"/>
<stop offset="0.739583" stop-color="#FF9E57"/>
<stop offset="1" stop-color="#FFD595"/>
</linearGradient>
<clipPath id="clip0_601_1627">
<rect width="15" height="15" fill="white" transform="translate(4.5 5.25)"/>
</clipPath>
</defs>
</svg>
