<svg width="24" height="24" viewBox="0 0 24 24" fill="none" xmlns="http://www.w3.org/2000/svg">
<g clip-path="url(#clip0_601_1628)">
<rect width="24" height="24" rx="12" fill="#10111B"/>
<path d="M23.25 12C23.25 18.2132 18.2132 23.25 12 23.25C5.7868 23.25 0.75 18.2132 0.75 12C0.75 5.7868 5.7868 0.75 12 0.75C18.2132 0.75 23.25 5.7868 23.25 12Z" stroke="url(#paint0_linear_601_1628)" stroke-width="1.5"/>
<path fill-rule="evenodd" clip-rule="evenodd" d="M12.9 9.675L15.6 8.1V11.25L12.9 9.675ZM15.6 16.425L12 18.525L8.4 16.425V12.75L12 14.85L15.6 12.75V16.425ZM8.4 8.1L11.1 9.675L8.4 11.25V8.1ZM12.45 10.425L15.15 12L12.45 13.575V10.425ZM11.55 13.575L8.85 12L11.55 10.425V13.575ZM15.15 7.35L12 9.15L8.85 7.35L12 5.475L15.15 7.35ZM7.5 7.05V16.875L12 19.425L16.5 16.875V7.05L12 4.5L7.5 7.05Z" fill="white"/>
</g>
<defs>
<linearGradient id="paint0_linear_601_1628" x1="12" y1="0" x2="12" y2="24" gradientUnits="userSpaceOnUse">
<stop stop-color="#A57BFF"/>
<stop offset="0.239583" stop-color="#FF66D4"/>
<stop offset="0.5" stop-color="#FF5B78"/>
<stop offset="0.739583" stop-color="#FF9E57"/>
<stop offset="1" stop-color="#FFD595"/>
</linearGradient>
<clipPath id="clip0_601_1628">
<rect width="24" height="24" rx="12" fill="white"/>
</clipPath>
</defs>
</svg>
